# xmcd CD database file
#
# Track frame offsets:
#	150
#	29368
#	67276
#	109304
#	152935
#	202362
#	238573
#	258594
#	285063
#
# Disc length: 4192 seconds
#
# Revision: 0
# Processed by: cddbd v1.4PL0 Copyright (c) Steve Scherf et al.
# Submitted via: CDex 1.51
#
DISCID=88105e09
DTITLE=Albert Collins - Texas Blues
DYEAR=2001
DGENRE=Blues
TTITLE0=You're so high
TTITLE1=You accuse me
TTITLE2=I get the feeling
TTITLE3=Angel of mercy
TTITLE4=The trouble was money
TTITLE5=Playing with my mind
TTITLE6=Too many dirty dishes
TTITLE7=The things I used to do
TTITLE8=Black cat bone
EXTD=YEAR: 2001
EXTT0=
EXTT1=
EXTT2=
EXTT3=
EXTT4=
EXTT5=
EXTT6=
EXTT7=
EXTT8=
PLAYORDER=
